<?xml version="1.0" encoding="utf-8"?>
<!-- Generator: Adobe Illustrator 25.4.1, SVG Export Plug-In . SVG Version: 6.00 Build 0)  -->
<svg version="1.1" id="图层_1" xmlns="http://www.w3.org/2000/svg" xmlns:xlink="http://www.w3.org/1999/xlink" x="0px" y="0px"
	 viewBox="0 0 16 16" style="enable-background:new 0 0 16 16;" xml:space="preserve">
<style type="text/css">
	.st0{fill:#F0EEE2;}
	.st1{fill:#BBAA9C;}
	.st2{fill:#D8D5BA;}
	.st3{fill:#5F4E56;}
	.st4{fill:#B8A99A;}
	.st5{font-family:'PingFang-SC-Medium';}
	.st6{font-size:0.5764px;}
	.st7{font-size:0.5762px;}
	.st8{font-size:0.5761px;}
	.st9{font-size:0.5758px;}
	.st10{font-size:0.5756px;}
	.st11{font-size:0.5753px;}
	.st12{font-size:0.575px;}
	.st13{font-size:0.5748px;}
	.st14{font-size:0.5745px;}
	.st15{font-size:0.5742px;}
	.st16{font-size:0.5739px;}
	.st17{font-size:0.5736px;}
	.st18{font-size:0.5734px;}
</style>
<path class="st0" d="M10,0.5C7,0.5,4.5,3,4.5,6c0,0.8,0.2,1.6,0.5,2.3L0.5,13v2.5H3v-2h2v-2l1.4-1.4c1,0.9,2.3,1.4,3.6,1.4
	c3,0,5.5-2.5,5.5-5.5S13,0.5,10,0.5z M11,7C9.9,7,9,6.1,9,5s0.9-2,2-2s2,0.9,2,2S12.1,7,11,7z"/>
<path class="st1" d="M12.3,0.8L9.6,3.6c-0.8,0.8-0.8,2,0,2.8s2,0.8,2.8,0l2.8-2.8L12.3,0.8z M11,5.8c-0.4,0-0.8-0.3-0.8-0.8
	s0.3-0.8,0.8-0.8s0.8,0.3,0.8,0.8S11.4,5.8,11,5.8z"/>
<path class="st2" d="M5.2,10.5H4.5c-0.1,0-0.2,0.1-0.2,0.2S4.4,11,4.5,11h0.8c0.1,0,0.2-0.1,0.2-0.2S5.4,10.5,5.2,10.5z M10.2,9.5H9
	c-0.1,0-0.2,0.1-0.2,0.2S8.9,10,9,10h1.2c0.1,0,0.2-0.1,0.2-0.2S10.4,9.5,10.2,9.5z M8,2.8H7C6.9,2.8,6.8,2.9,6.8,3S6.9,3.2,7,3.2h1
	c0.1,0,0.2-0.1,0.2-0.3C8.2,2.9,8.1,2.8,8,2.8z M14.5,8.5h-2c-0.1,0-0.3,0.1-0.3,0.2S12.3,9,12.5,9h2c0.1,0,0.3-0.1,0.3-0.2
	S14.6,8.5,14.5,8.5L14.5,8.5z M8,7.5H7.5c-0.1,0-0.2,0.1-0.2,0.3C7.3,7.9,7.4,8,7.5,8H8c0.1,0,0.2-0.1,0.2-0.3
	C8.2,7.6,8.1,7.5,8,7.5z M9.2,2.2c0.1,0,0.2-0.1,0.2-0.2s0-0.2-0.2-0.2S9,1.9,9,2C9,2.1,9.1,2.2,9.2,2.2z M6,5.8H4.8
	C4.6,5.8,4.5,5.9,4.5,6s0.1,0.2,0.2,0.2H6c0.1,0,0.2-0.1,0.2-0.2S6.1,5.8,6,5.8z M12.5,4h0.8c0.1,0,0.2-0.1,0.2-0.2
	s-0.1-0.2-0.2-0.2h-0.8c-0.1,0-0.2,0.1-0.2,0.2S12.4,4,12.5,4z M2.8,11.8H1.5c-0.1,0-0.2,0.1-0.2,0.2s0.1,0.2,0.2,0.2h1.2
	C2.9,12.2,3,12.1,3,12S2.9,11.8,2.8,11.8z"/>
<path class="st3" d="M11,6c0.6,0,1-0.4,1-1s-0.4-1-1-1s-1,0.4-1,1S10.4,6,11,6z M11,4.5c0.3,0,0.5,0.2,0.5,0.5S11.3,5.5,11,5.5
	S10.5,5.3,10.5,5S10.7,4.5,11,4.5z M10,0C6.7,0,4,2.7,4,6c0,0.8,0.2,1.6,0.5,2.3l-4.3,4.3C0.1,12.7,0,12.9,0,13v2.5
	C0,15.8,0.2,16,0.5,16H3c0.3,0,0.5-0.2,0.5-0.5V14H5c0.3,0,0.5-0.2,0.5-0.5v-1.8l0.9-0.9c1,0.8,2.3,1.2,3.6,1.2c3.3,0,6-2.7,6-6
	S13.3,0,10,0z M14.6,3.9l-2.3,2.3c-0.7,0.7-1.8,0.7-2.5,0s-0.7-1.8,0-2.5l2.3-2.3C13.2,2,14,2.8,14.6,3.9z M10,11
	c-1.4,0-2.7-0.6-3.6-1.6l-1.8,1.8c-0.1,0.1-0.1,0.2-0.1,0.3V13H3c-0.3,0-0.5,0.2-0.5,0.5V15H1v-1.8l4-4l0,0l0.7-0.7
	C5.2,7.8,5,6.9,5,6c0-2.8,2.2-5,5-5c0.5,0,1.1,0.1,1.6,0.3L9.4,3.4c-0.9,0.9-0.9,2.3,0,3.2s2.3,0.9,3.2,0l2.2-2.2
	C14.9,4.9,15,5.5,15,6C15,8.8,12.8,11,10,11z"/>
<text transform="matrix(0.9044 0.4096 -0.4085 0.9128 11.9373 1.0787)" class="st4 st5 st6">W</text>
<text transform="matrix(0.8786 0.4637 -0.462 0.8869 12.4211 1.3053)" class="st4 st5 st7">i</text>
<text transform="matrix(0.859 0.4999 -0.498 0.8672 12.5506 1.3702)" class="st4 st5 st8">n</text>
<text transform="matrix(0.8265 0.5534 -0.5509 0.8346 12.8285 1.5306)" class="st4 st5 st9">R</text>
<text transform="matrix(0.7876 0.609 -0.606 0.7955 13.1507 1.7474)" class="st4 st5 st10">A</text>
<text transform="matrix(0.7447 0.6623 -0.6587 0.7524 13.4493 1.9771)" class="st4 st5 st11">R</text>
<text transform="matrix(0.7096 0.7009 -0.697 0.7171 13.735 2.236)" class="st4 st5 st12"> </text>
<text transform="matrix(0.6717 0.7385 -0.7342 0.679 13.8738 2.3705)" class="st4 st5 st13">K</text>
<text transform="matrix(0.6225 0.7819 -0.777 0.6295 14.1397 2.6619)" class="st4 st5 st14">e</text>
<text transform="matrix(0.5784 0.8162 -0.811 0.5851 14.3374 2.913)" class="st4 st5 st15">y</text>
<text transform="matrix(0.5304 0.8494 -0.8438 0.5367 14.5032 3.1439)" class="st4 st5 st16">g</text>
<text transform="matrix(0.4773 0.8815 -0.8755 0.4833 14.682 3.4338)" class="st4 st5 st17">e</text>
<text transform="matrix(0.4235 0.9096 -0.9032 0.4292 14.8346 3.7134)" class="st4 st5 st18">n</text>
</svg>
