<?xml version="1.0" standalone="no"?><!DOCTYPE svg PUBLIC "-//W3C//DTD SVG 1.1//EN" "http://www.w3.org/Graphics/SVG/1.1/DTD/svg11.dtd"><svg t="1626578511905" class="icon" viewBox="0 0 1024 1024" version="1.1" xmlns="http://www.w3.org/2000/svg" p-id="2229" xmlns:xlink="http://www.w3.org/1999/xlink" width="16" height="16"><defs><style type="text/css"></style></defs><path d="M640 31.9488c-194.4576 0-352.0512 157.5936-352.0512 352.0512-0.1024 49.9712 10.5472 99.4304 31.1296 144.896l-287.1296 303.104v159.9488h160.0512v-128h128v-128l87.6544-87.6544c64.2048 56.6272 146.8416 87.7568 232.3456 87.6544 194.3552 0 352.0512-157.5936 352.0512-352.0512S834.3552 31.9488 640 31.9488z m64 416.0512c-70.656 0-128-57.344-128-128s57.344-128 128-128 128 57.344 128 128-57.344 128-128 128z" fill="#F0EEE2" p-id="2230"></path><path d="M789.504 53.4528L613.4784 229.4784c-49.9712 49.9712-49.9712 131.072 0 181.0432s131.072 49.9712 181.0432 0L970.5472 234.496 789.504 53.4528z m-85.504 314.5728c-26.5216 0-48.0256-21.504-48.0256-48.0256s21.504-48.0256 48.0256-48.0256 48.0256 21.504 48.0256 48.0256-21.504 48.0256-48.0256 48.0256z" fill="#BBAA9C" p-id="2231"></path><path d="M335.9744 671.9488h-48.0256c-8.8064 0-15.9744 7.168-15.9744 15.9744s7.168 15.9744 15.9744 15.9744h48.0256c8.8064 0 15.9744-7.168 15.9744-15.9744s-7.168-15.9744-15.9744-15.9744z m320-63.8976h-79.9744c-8.8064 0-15.9744 7.168-15.9744 15.9744s7.168 15.9744 15.9744 15.9744h79.9744c8.8064 0 15.9744-7.168 15.9744-15.9744s-7.0656-15.9744-15.9744-15.9744zM512 176.0256h-64c-8.8064 0.2048-15.7696 7.5776-15.5648 16.384 0.2048 8.4992 7.0656 15.36 15.5648 15.5648H512c8.8064-0.2048 15.7696-7.5776 15.5648-16.384-0.2048-8.4992-7.0656-15.36-15.5648-15.5648z m415.9488 367.9232h-128c-8.8064-0.2048-16.1792 6.7584-16.384 15.5648s6.7584 16.1792 15.5648 16.384h128.8192c8.8064 0.2048 16.1792-6.7584 16.384-15.5648s-6.7584-16.1792-15.5648-16.384h-0.8192zM512 480.0512h-31.9488c-8.8064 0.2048-15.7696 7.5776-15.5648 16.384 0.2048 8.4992 7.0656 15.36 15.5648 15.5648H512c8.8064-0.2048 15.7696-7.5776 15.5648-16.384-0.2048-8.4992-7.0656-15.36-15.5648-15.5648z m79.9744-336.0768c8.8064 0 15.9744-7.168 15.9744-15.9744s-7.168-15.9744-15.9744-15.9744-15.9744 7.168-15.9744 15.9744 7.168 15.9744 15.9744 15.9744zM384 368.0256h-79.9744c-8.8064 0-15.9744 7.168-15.9744 15.9744s7.168 15.9744 15.9744 15.9744H384c8.8064 0 15.9744-7.168 15.9744-15.9744s-7.168-15.9744-15.9744-15.9744zM799.9488 256h48.0256c8.8064 0 15.9744-7.168 15.9744-15.9744s-7.168-15.9744-15.9744-15.9744h-48.0256c-8.8064 0-15.9744 7.168-15.9744 15.9744s7.168 15.9744 15.9744 15.9744zM176.0256 752.0256H96.0512c-8.8064 0-15.9744 7.168-15.9744 15.9744s7.168 15.9744 15.9744 15.9744h79.9744c8.8064 0 15.9744-7.168 15.9744-15.9744s-7.168-15.9744-15.9744-15.9744z" fill="#D8D5BA" p-id="2232"></path><path d="M704 384c35.328 0 64-28.672 64-64S739.328 256 704 256 640 284.672 640 320s28.672 64 64 64z m0-96.0512c17.7152 0 31.9488 14.336 31.9488 31.9488s-14.336 31.9488-31.9488 31.9488-31.9488-14.336-31.9488-31.9488c-0.1024-17.6128 14.2336-31.9488 31.9488-31.9488zM640 0C427.9296 0 256 171.9296 256 384c-0.1024 51.0976 10.1376 101.6832 29.9008 148.7872L9.3184 809.3696C3.3792 815.4112 0 823.5008 0 832v159.9488C0 1009.664 14.336 1024 31.9488 1024h159.9488c17.7152 0 31.9488-14.336 31.9488-31.9488V896h96.0512c17.7152 0 31.9488-14.336 31.9488-31.9488v-114.688l57.856-57.856c66.3552 49.8688 147.1488 76.6976 230.1952 76.5952 212.0704 0 384-171.9296 384-384S852.0704 0 640 0z m291.2256 251.1872L783.1552 399.1552c-43.7248 43.7248-114.688 43.7248-158.4128 0-43.7248-43.7248-43.7248-114.688 0-158.4128L772.8128 92.7744c70.0416 32.0512 126.3616 88.3712 158.4128 158.4128zM640 704c-88.064 0.1024-172.1344-36.1472-232.5504-100.1472L294.2976 717.0048c-4.096 5.5296-6.2464 12.1856-6.2464 18.944v96.0512h-96.0512c-17.7152 0-31.9488 14.336-31.9488 31.9488v96.0512H64V845.2096l253.2352-253.2352 0.2048 0.3072 46.4896-46.592c-28.7744-49.0496-44.032-104.8576-43.9296-161.792 0-176.7424 143.2576-320 320-320 34.0992 0 67.8912 5.4272 100.352 16.0768l-138.1376 138.24c-56.2176 56.2176-56.2176 147.456 0 203.6736s147.456 56.2176 203.6736 0l138.0352-138.24c10.6496 32.3584 16.0768 66.2528 16.0768 100.352 0 176.7424-143.2576 320-320 320z" fill="#5F4E56" p-id="2233"></path></svg>