<svg xmlns="http://www.w3.org/2000/svg"  viewBox="0 0 80 80" width="40px" height="40px"><path fill="#fff" d="M12.5 75.5L12.5 4.5 49.793 4.5 67.5 22.207 67.5 75.5z"/><path fill="#788b9c" d="M49.586,5L67,22.414V75H13V5H49.586 M50,4H12v72h56V22L50,4L50,4z"/><path fill="#fff" d="M49.5 22.5L49.5 4.5 49.793 4.5 67.5 22.207 67.5 22.5z"/><path fill="#788b9c" d="M50 5.414L66.586 22H50V5.414M50 4h-1v19h19v-1L50 4 50 4zM24 32H56V33H24zM24 38H48V39H24zM24 44H56V45H24zM24 50H48V51H24zM24 56H56V57H24z"/></svg>