<svg xmlns="http://www.w3.org/2000/svg"  viewBox="0 0 48 48" width="48px" height="48px"><linearGradient id="Ja~RXCbVqNAHlfRcVj7wMa" x1="24" x2="24" y1="18" y2="30" gradientUnits="userSpaceOnUse"><stop offset=".233" stop-color="#41a5ee"/><stop offset=".317" stop-color="#3994de"/><stop offset=".562" stop-color="#2366b4"/><stop offset=".751" stop-color="#154a9b"/><stop offset=".86" stop-color="#103f91"/></linearGradient><rect width="36" height="12" x="6" y="18" fill="url(#Ja~RXCbVqNAHlfRcVj7wMa)"/><linearGradient id="Ja~RXCbVqNAHlfRcVj7wMb" x1="24" x2="24" y1="6" y2="18" gradientUnits="userSpaceOnUse"><stop offset=".233" stop-color="#e8457c"/><stop offset=".272" stop-color="#e14177"/><stop offset=".537" stop-color="#b32c59"/><stop offset=".742" stop-color="#971e46"/><stop offset=".86" stop-color="#8c193f"/></linearGradient><path fill="url(#Ja~RXCbVqNAHlfRcVj7wMb)" d="M42,18H6V8c0-1.105,0.895-2,2-2h32c1.105,0,2,0.895,2,2V18z"/><linearGradient id="Ja~RXCbVqNAHlfRcVj7wMc" x1="24" x2="24" y1="30" y2="42" gradientUnits="userSpaceOnUse"><stop offset=".233" stop-color="#33c481"/><stop offset=".325" stop-color="#2eb173"/><stop offset=".566" stop-color="#228353"/><stop offset=".752" stop-color="#1b673f"/><stop offset=".86" stop-color="#185c37"/></linearGradient><path fill="url(#Ja~RXCbVqNAHlfRcVj7wMc)" d="M40,42H8c-1.105,0-2-0.895-2-2V30h36v10C42,41.105,41.105,42,40,42z"/><rect width="14" height="36" x="17" y="6" opacity=".05"/><rect width="13" height="36" x="17.5" y="6" opacity=".07"/><linearGradient id="Ja~RXCbVqNAHlfRcVj7wMd" x1="24" x2="24" y1="6" y2="42" gradientUnits="userSpaceOnUse"><stop offset=".039" stop-color="#f8c819"/><stop offset=".282" stop-color="#af4316"/></linearGradient><rect width="12" height="36" x="18" y="6" fill="url(#Ja~RXCbVqNAHlfRcVj7wMd)"/><linearGradient id="Ja~RXCbVqNAHlfRcVj7wMe" x1="24" x2="24" y1="12" y2="42" gradientUnits="userSpaceOnUse"><stop offset="0" stop-color="#eaad29"/><stop offset=".245" stop-color="#d98e24"/><stop offset=".632" stop-color="#c0631c"/><stop offset=".828" stop-color="#b75219"/><stop offset=".871" stop-color="#a94917"/><stop offset=".949" stop-color="#943b13"/><stop offset="1" stop-color="#8c3612"/></linearGradient><path fill="url(#Ja~RXCbVqNAHlfRcVj7wMe)" d="M24,12c-3.314,0-6,2.686-6,6v24h12V18C30,14.686,27.314,12,24,12z"/><path d="M20,32c-0.73,0-1.41-0.2-2-0.55v1.14c0.61,0.26,1.29,0.41,2,0.41h8c0.71,0,1.39-0.15,2-0.41v-1.14 C29.41,31.8,28.73,32,28,32H20z M29,22v6c0,0.55-0.45,1-1,1h-2v-2c0-1.1-0.9-2-2-2s-2,0.9-2,2v2h-2c-0.55,0-1-0.45-1-1v-6 c0-0.55-0.45-1-1-1v7c0,1.1,0.9,2,2,2h3v-3c0-0.55,0.45-1,1-1s1,0.45,1,1v3h3c1.1,0,2-0.9,2-2v-7C29.45,21,29,21.45,29,22z" opacity=".05"/><path d="M29.5,22v6c0,0.83-0.67,1.5-1.5,1.5h-2.5V27c0-0.83-0.67-1.5-1.5-1.5s-1.5,0.67-1.5,1.5v2.5H20 c-0.83,0-1.5-0.67-1.5-1.5v-6c0-0.28-0.22-0.5-0.5-0.5V28c0,1.1,0.9,2,2,2h3v-3c0-0.55,0.45-1,1-1s1,0.45,1,1v3h3c1.1,0,2-0.9,2-2 v-6.5C29.72,21.5,29.5,21.72,29.5,22z M20,32c-0.73,0-1.41-0.2-2-0.55v0.58c0.6,0.3,1.28,0.47,2,0.47h8c0.72,0,1.4-0.17,2-0.47 v-0.58C29.41,31.8,28.73,32,28,32H20z" opacity=".07"/><linearGradient id="Ja~RXCbVqNAHlfRcVj7wMf" x1="24" x2="24" y1="21" y2="32" gradientUnits="userSpaceOnUse"><stop offset=".613" stop-color="#e6e6e6"/><stop offset=".785" stop-color="#e4e4e4"/><stop offset=".857" stop-color="#ddd"/><stop offset=".91" stop-color="#d1d1d1"/><stop offset=".953" stop-color="#bfbfbf"/><stop offset=".967" stop-color="#b8b8b8"/></linearGradient><path fill="url(#Ja~RXCbVqNAHlfRcVj7wMf)" d="M32,23v5c0,2.2-1.8,4-4,4h-8c-2.2,0-4-1.8-4-4v-5c0-1.105,0.895-2,2-2h0v7 c0,1.105,0.895,2,2,2h3v-3c0-0.552,0.448-1,1-1h0c0.552,0,1,0.448,1,1v3h3c1.105,0,2-0.895,2-2v-7C31.1,21,32,21.9,32,23z"/></svg>